<svg width="21" height="20" viewBox="0 0 21 20" fill="none" xmlns="http://www.w3.org/2000/svg">
<path d="M20.12 0.879901C19.5477 0.336893 18.7889 0.0341797 18 0.0341797C17.2111 0.0341797 16.4523 0.336893 15.88 0.879901L13.46 3.2899C13.0248 3.73005 12.7364 4.29404 12.6344 4.90453C12.5323 5.51503 12.6216 6.14214 12.89 6.6999L10.74 8.8499L8.74 6.8499C8.37921 6.4804 7.92914 6.2103 7.43335 6.06573C6.93757 5.92116 6.41286 5.90703 5.91001 6.0247C5.40716 6.14236 4.94321 6.38784 4.56304 6.73738C4.18288 7.08692 3.89939 7.52868 3.74 8.0199L1.08 16.0199C0.903229 16.548 0.876954 17.1149 1.00412 17.6571C1.13128 18.1993 1.40686 18.6954 1.8 19.0899C2.0852 19.3837 2.42751 19.616 2.80587 19.7725C3.18422 19.929 3.59061 20.0064 4 19.9999C4.34018 20.0063 4.67879 19.9521 5 19.8399L13 17.1799C13.4912 17.0205 13.933 16.737 14.2825 16.3569C14.6321 15.9767 14.8775 15.5127 14.9952 15.0099C15.1129 14.507 15.0987 13.9823 14.9542 13.4865C14.8096 12.9908 14.5395 12.5407 14.17 12.1799L12.17 10.1799L14.32 8.0299C14.8778 8.29828 15.5049 8.38756 16.1154 8.28551C16.7259 8.18347 17.2898 7.89508 17.73 7.4599L20.14 5.0399C20.6751 4.4784 20.9719 3.73149 20.9682 2.95587C20.9644 2.18026 20.6605 1.43623 20.12 0.879901ZM12.7 13.6299C12.819 13.7512 12.9052 13.9007 12.9503 14.0645C12.9955 14.2283 12.9982 14.4009 12.9582 14.566C12.9181 14.7311 12.8367 14.8833 12.7216 15.0082C12.6064 15.1331 12.4613 15.2266 12.3 15.2799L4.32 17.9999C4.14633 18.053 3.96148 18.0577 3.78531 18.0137C3.60913 17.9696 3.44828 17.8784 3.32 17.7499C3.19146 17.6216 3.10027 17.4608 3.05623 17.2846C3.01218 17.1084 3.01695 16.9236 3.07 16.7499L5.74 8.7499C5.77806 8.57332 5.86324 8.41035 5.98649 8.2783C6.10974 8.14624 6.26646 8.05004 6.44 7.9999C6.51645 7.99164 6.59356 7.99164 6.67 7.9999C6.93234 8.00101 7.18374 8.10516 7.37 8.2899L9.37 10.2899L8.5 11.1499C8.40627 11.2429 8.33188 11.3535 8.28111 11.4753C8.23034 11.5972 8.2042 11.7279 8.2042 11.8599C8.2042 11.9919 8.23034 12.1226 8.28111 12.2445C8.33188 12.3663 8.40627 12.4769 8.5 12.5699C8.59296 12.6636 8.70357 12.738 8.82542 12.7888C8.94728 12.8396 9.07799 12.8657 9.21 12.8657C9.34201 12.8657 9.47272 12.8396 9.59458 12.7888C9.71644 12.738 9.82704 12.6636 9.92 12.5699L10.78 11.6999L12.7 13.6299ZM18.7 3.7099L16.29 6.1199C16.1496 6.25751 15.9718 6.35069 15.7787 6.38779C15.5857 6.4249 15.386 6.40428 15.2046 6.32852C15.0232 6.25276 14.8682 6.12522 14.7589 5.96184C14.6495 5.79846 14.5908 5.60648 14.59 5.4099C14.5911 5.14756 14.6953 4.89616 14.88 4.7099L17.29 2.2899C17.383 2.19617 17.4936 2.12178 17.6154 2.07101C17.7373 2.02024 17.868 1.9941 18 1.9941C18.132 1.9941 18.2627 2.02024 18.3846 2.07101C18.5064 2.12178 18.617 2.19617 18.71 2.2899C18.8037 2.38286 18.8781 2.49347 18.9289 2.61532C18.9797 2.73718 19.0058 2.86789 19.0058 2.9999C19.0058 3.13191 18.9797 3.26262 18.9289 3.38448C18.8781 3.50634 18.8037 3.61694 18.71 3.7099H18.7Z" fill="#5A636C"/>
</svg>
