<svg width="20" height="16" viewBox="0 0 20 16" fill="none" xmlns="http://www.w3.org/2000/svg">
<path d="M15 6.3335H13.95C13.6382 5.12599 12.994 4.03015 12.0905 3.17049C11.1871 2.31083 10.0606 1.72182 8.83911 1.47039C7.61762 1.21896 6.35009 1.3152 5.18056 1.74816C4.01102 2.18112 2.98638 2.93344 2.22305 3.91965C1.45973 4.90585 0.988336 6.08639 0.862433 7.32712C0.736531 8.56785 0.96117 9.81903 1.51082 10.9385C2.06048 12.0579 2.91311 13.0007 3.97183 13.6598C5.03055 14.3189 6.25291 14.6678 7.50001 14.6668H15C16.1051 14.6668 17.1649 14.2278 17.9463 13.4464C18.7277 12.665 19.1667 11.6052 19.1667 10.5002C19.1667 9.39509 18.7277 8.33529 17.9463 7.55388C17.1649 6.77248 16.1051 6.3335 15 6.3335Z" stroke="#2F80ED" stroke-opacity="0.5" stroke-width="2" stroke-linecap="round" stroke-linejoin="round"/>
</svg>
